<svg xmlns="http://www.w3.org/2000/svg" width="34.819" height="34" viewBox="0 0 34.819 34"><g transform="translate(-334 -2951)"><path d="M107.22,307.1h8.924v2.04H107.22Z" transform="translate(234.072 2664.38)"/><path d="M325.413,66.987c.874,0,1.1,1.149.643,1.691l-1.017,1.047c-.928.955-.823,1.005-.823,2.873h2.274a3.867,3.867,0,0,1,.1-1.5A6.971,6.971,0,0,1,327.7,69.9a2.814,2.814,0,0,0,.052-4.129,3.681,3.681,0,0,0-4.6.09,3.6,3.6,0,0,0-1.092,2.349h2.379C324.506,67.608,324.81,66.987,325.413,66.987Z" transform="translate(33.84 2890)"/><path d="M352.859,185.352a1.317,1.317,0,1,0,1.317,1.317A1.3,1.3,0,0,0,352.859,185.352Z" transform="translate(6.365 2777.844)"/><path d="M15.778,6.025v5.031H0V34.563H6.7v5.462l6.359-5.462H23.508v-9.5h.357l5.152,4.172V25.066h5.8V6.025Zm5.69,26.5H12.3L8.74,35.583V32.522H2.04V13.1H15.778v3.982H7.292v2.04h8.486v2.67H7.292v2.04h8.486v1.237h5.69Zm11.312-9.5h-5.8V24.96l-2.389-1.934H17.818V8.065H32.779Z" transform="translate(334 2944.975)"/></g></svg>