<svg xmlns="http://www.w3.org/2000/svg" width="19.907" height="34" viewBox="0 0 19.907 34"><g transform="translate(19.907 34) rotate(180)"><path d="M89.93,302.16h2.008v2.008H89.93Zm0,0" transform="translate(-83.963 -282.105)"/><path d="M179.863,392.094h2.008V394.1h-2.008Zm0,0" transform="translate(-167.93 -366.07)"/><path d="M101.769,307.971,95.744,314l-1.42-1.42,6.025-6.025Zm0,0" transform="translate(-88.093 -286.243)"/><path d="M9.954,34a9.953,9.953,0,0,0,3.982-19.075v-4.88h2.88L9.954,0,3.092,10.046h2.88v4.88A9.953,9.953,0,0,0,9.954,34ZM6.862,8.056,9.954,3.53l3.092,4.526h-1.1v6.239a10,10,0,0,0-3.982,0V8.056Zm3.091,8.029a7.963,7.963,0,1,1-7.963,7.963A7.972,7.972,0,0,1,9.954,16.085Zm0,0" transform="translate(0 0)"/></g></svg>