<svg xmlns="http://www.w3.org/2000/svg" width="24" height="24" viewBox="0 0 24 24"><path d="M21.187,0H2.812A2.816,2.816,0,0,0,0,2.812V21.187A2.816,2.816,0,0,0,2.812,24H21.187A2.816,2.816,0,0,0,24,21.187V2.812A2.816,2.816,0,0,0,21.187,0Zm.937,21.187a.939.939,0,0,1-.937.937H15.656V15.281h3l.35-2.906H15.656V9.234a1.375,1.375,0,0,1,1.406-1.406h2.109V5.109a20.849,20.849,0,0,0-2.109-.187,4.34,4.34,0,0,0-3.007,1.265A4.268,4.268,0,0,0,12.75,9.243v3.132H9.7v2.906H12.75v6.844H2.812a.939.939,0,0,1-.937-.937V2.812a.939.939,0,0,1,.937-.937H21.187a.939.939,0,0,1,.937.937Zm0,0"/></svg>