<svg xmlns="http://www.w3.org/2000/svg" width="34" height="34" viewBox="0 0 34 34"><path d="M31.012,19.988H29.949V12.02H26.961a1,1,0,0,1,0-1.992h2.988V4.051H25.965V2.988a2.988,2.988,0,0,0-5.977,0V4.051H12.02V7.039a1,1,0,0,1-1.992,0V4.051H4.051V8.035H2.988a2.988,2.988,0,0,0,0,5.977H4.051V21.98H7.039a1,1,0,0,1,0,1.992H4.051v5.977H8.035v1.063a2.988,2.988,0,0,0,5.977,0V29.949H21.98V26.961a1,1,0,0,1,1.992,0v2.988h5.977V25.965h1.063a2.988,2.988,0,0,0,0-5.977ZM21.98,6.043V2.988a1,1,0,0,1,1.992,0V6.043h3.984V8.035h-1a2.988,2.988,0,0,0,0,5.977h1V16H18V6.043ZM2.988,12.02a1,1,0,0,1,0-1.992H6.043V6.043H8.035v1a2.988,2.988,0,0,0,5.977,0v-1H16V16H6.043V12.02ZM12.02,27.957v3.055a1,1,0,0,1-1.992,0V27.957H6.043V25.965h1a2.988,2.988,0,0,0,0-5.977h-1V18H16v9.961Zm18.992-3.984H27.957v3.984H25.965v-1a2.988,2.988,0,0,0-5.977,0v1H18V18h9.961V21.98h3.055a1,1,0,0,1,0,1.992Z"/></svg>