<svg xmlns="http://www.w3.org/2000/svg" width="24" height="24" viewBox="0 0 24 24"><path d="M7.5,19.828H4.219V9.234H7.5ZM7.828,5.859A1.922,1.922,0,1,0,5.907,7.781,1.922,1.922,0,0,0,7.828,5.859ZM19.781,14c0-2.844-.6-4.953-3.923-4.953a3.405,3.405,0,0,0-3.105,1.629h0V9.234H9.563V19.828H12.75v-5.26c0-1.377.351-2.712,2.058-2.712,1.684,0,1.739,1.575,1.739,2.8v5.172h3.234ZM24,21.187V2.812A2.816,2.816,0,0,0,21.188,0H2.813A2.816,2.816,0,0,0,0,2.812V21.187A2.816,2.816,0,0,0,2.813,24H21.188A2.816,2.816,0,0,0,24,21.187ZM21.188,1.875a.939.939,0,0,1,.937.937V21.187a.939.939,0,0,1-.937.937H2.813a.939.939,0,0,1-.937-.937V2.812a.939.939,0,0,1,.937-.937Zm0,0" transform="translate(0)"/></svg>