<svg xmlns="http://www.w3.org/2000/svg" width="45.462" height="35.72" viewBox="0 0 45.462 35.72"><g transform="translate(0 -59.013)"><g transform="translate(0 59.013)"><path d="M56.95,337.413a3.885,3.885,0,0,0,2.66-1L46.73,323.528c-.309.221-.609.436-.892.641q-1.446,1.065-2.347,1.661a14.46,14.46,0,0,1-2.4,1.218,7.306,7.306,0,0,1-2.791.621h-.051a7.3,7.3,0,0,1-2.791-.621,14.413,14.413,0,0,1-2.4-1.218q-.9-.6-2.347-1.661c-.269-.2-.567-.413-.889-.645L16.946,336.409a3.886,3.886,0,0,0,2.661,1Z" transform="translate(-15.547 -301.692)"/><path d="M2.563,200.762A13.45,13.45,0,0,1,0,198.555v19.6L11.352,206.8Q7.946,204.421,2.563,200.762Z" transform="translate(0 -187.037)"/><path d="M422.12,200.762q-5.183,3.508-8.811,6.041l11.348,11.348v-19.6A14,14,0,0,1,422.12,200.762Z" transform="translate(-379.195 -187.037)"/><path d="M41.408,59.013H4.065a3.623,3.623,0,0,0-3.006,1.319,5.119,5.119,0,0,0-1.053,3.3,5.928,5.928,0,0,0,1.4,3.463,12.586,12.586,0,0,0,2.968,2.93q.862.609,5.2,3.615c1.561,1.082,2.919,2.025,4.086,2.839.995.693,1.852,1.293,2.561,1.791l.379.27.7.5q.824.6,1.37.964t1.319.824a7.7,7.7,0,0,0,1.459.685,4.037,4.037,0,0,0,1.268.228h.051a4.038,4.038,0,0,0,1.268-.228,7.68,7.68,0,0,0,1.459-.685q.774-.457,1.319-.824t1.37-.964l.7-.5.379-.27,2.567-1.784q3.155-2.192,9.306-6.461a12.066,12.066,0,0,0,3.095-3.12,6.712,6.712,0,0,0,1.242-3.83,4.092,4.092,0,0,0-4.059-4.059Z" transform="translate(-0.006 -59.013)"/></g></g></svg>