<svg xmlns="http://www.w3.org/2000/svg" width="26.031" height="34" viewBox="0 0 26.031 34"><path d="M73.016,0A13.03,13.03,0,0,0,60,13.016a12.88,12.88,0,0,0,2.8,8.067L73.016,34,83.23,21.083a12.88,12.88,0,0,0,2.8-8.067A13.03,13.03,0,0,0,73.016,0Zm8.652,19.847L73.016,30.788,64.364,19.847a10.907,10.907,0,0,1-2.372-6.831,11.023,11.023,0,1,1,22.047,0,10.907,10.907,0,0,1-2.372,6.831Z" transform="translate(-60 0)"/><path d="M129.031,60a9.031,9.031,0,1,0,9.031,9.031A9.041,9.041,0,0,0,129.031,60Zm0,16.07a7.039,7.039,0,1,1,7.039-7.039A7.047,7.047,0,0,1,129.031,76.07Z" transform="translate(-116.016 -56.016)"/></svg>