<svg xmlns="http://www.w3.org/2000/svg" width="33.335" height="34" viewBox="0 0 33.335 34"><g transform="translate(-1407.784 -1125.611)"><path d="M44.063,0H21.334V25.5h0V34H44.063V19.833c5.858,0,10.606-4.44,10.606-9.917S49.92,0,44.063,0ZM41.932,32.008H23.465V27.492H41.932v4.516Zm0-6.508H23.465V1.992h14.22a9.7,9.7,0,0,0-4.23,7.924,9.426,9.426,0,0,0,1.849,5.6l-1.849,4.321L38.077,18.1a10.943,10.943,0,0,0,3.855,1.527Zm8.124-9.98a8.726,8.726,0,0,1-5.993,2.321,8.842,8.842,0,0,1-4.781-1.38l-.939-.6-1.057.4-.005,0,0,0,.423-.988-.643-.878a7.523,7.523,0,0,1-1.476-4.47,7.622,7.622,0,0,1,2.483-5.6,8.9,8.9,0,0,1,11.987,0,7.565,7.565,0,0,1,0,11.207Z" transform="translate(1386.45 1125.611)"/><path d="M159,433h3.173v1.992H159Z" transform="translate(1258.562 721.367)"/><path d="M266.333,134.333v1.992h2.131v-1.992Z" transform="translate(1158.852 1000.199)"/><path d="M326.333,134.333v1.992h2.131v-1.992Z" transform="translate(1103.114 1000.199)"/><path d="M386.333,134.333v1.992h2.131v-1.992Z" transform="translate(1047.375 1000.199)"/></g></svg>