<svg xmlns="http://www.w3.org/2000/svg" width="35.363" height="34" viewBox="0 0 35.363 34"><g transform="translate(0.001 -9.864)"><g transform="translate(-0.001 9.864)"><path d="M32.76,20.16a3.763,3.763,0,0,0-4.925,3.482L22.73,25.3a5.86,5.86,0,0,0-3.8-2.758V17.175a3.763,3.763,0,1,0-2.509,0v5.368a5.86,5.86,0,0,0-3.8,2.758L7.525,23.642a3.764,3.764,0,1,0-.775,2.386l5.105,1.659c-.018.189-.028.38-.028.574a5.83,5.83,0,0,0,1.479,3.887l-3.157,4.344a3.763,3.763,0,1,0,2.03,1.475l3.156-4.343a5.856,5.856,0,0,0,4.692,0l3.155,4.343a3.776,3.776,0,1,0,2.03-1.473l-3.157-4.345a5.831,5.831,0,0,0,1.479-3.887c0-.194-.01-.385-.028-.574l5.106-1.659A3.763,3.763,0,1,0,32.76,20.16Zm-27.8,3.966a1.254,1.254,0,1,1-1.194-1.643h0a1.257,1.257,0,0,1,1.193,1.643Zm5.316,16.361a1.254,1.254,0,1,1-1.194-1.643h0a1.257,1.257,0,0,1,1.193,1.643Zm6.154-26.86a1.254,1.254,0,1,1,1.254,1.254A1.256,1.256,0,0,1,16.426,13.627ZM17.68,31.605a3.345,3.345,0,1,1,3.345-3.345A3.349,3.349,0,0,1,17.68,31.605Zm7.409,8.107a1.253,1.253,0,0,1,1.192-.868h0a1.255,1.255,0,1,1-1.192.868Zm7.7-15.586A1.254,1.254,0,1,1,31.6,22.483h0a1.257,1.257,0,0,1,1.193,1.643Z" transform="translate(0.001 -9.864)"/></g></g></svg>