<svg xmlns="http://www.w3.org/2000/svg" width="44.856" height="34" viewBox="0 0 44.856 34"><path d="M39.161,0H5.695A5.7,5.7,0,0,0,0,5.695V24.034a5.371,5.371,0,0,0,1.834,4.083,6.976,6.976,0,0,0,4.708,1.612H18.067L22.438,34l4.272-4.272H39.161a5.7,5.7,0,0,0,5.695-5.695V5.695A5.7,5.7,0,0,0,39.161,0Zm3.066,24.034A3.07,3.07,0,0,1,39.161,27.1H25.621l-3.2,3.2-3.28-3.2H6.542c-2.341,0-3.913-1.232-3.913-3.066V5.695A3.07,3.07,0,0,1,5.695,2.628H39.161a3.07,3.07,0,0,1,3.066,3.066Zm0,0"/><path d="M78.956,93.852a4.307,4.307,0,0,0-3.067,1.27l-.578.577-.578-.577a4.337,4.337,0,0,0-6.133,6.133l6.711,6.711,6.711-6.711a4.337,4.337,0,0,0-3.067-7.4Zm1.17,5.507-4.814,4.814L70.5,99.358a1.654,1.654,0,0,1,2.34-2.34l2.474,2.474,2.474-2.474a1.654,1.654,0,0,1,2.34,2.34Zm0,0" transform="translate(-61.312 -85.746)"/><path d="M274.18,126.572h1.384v6.021h2.722v-8.074H274.18Zm0,0" transform="translate(-250.208 -113.679)"/><path d="M358.583,124.52h-2.965l-2.653,2.93v-2.93h-2.676v8.074h2.676v-2l.612-.68,2.019,2.676h3.149l-3.391-4.522Zm0,0" transform="translate(-319.894 -113.679)"/></svg>