<svg xmlns="http://www.w3.org/2000/svg" width="33.143" height="34" viewBox="0 0 33.143 34"><path d="M11.192,20.709,6.076,25.826A1.143,1.143,0,0,1,4.46,24.209l5.116-5.117a1.143,1.143,0,1,1,1.616,1.616Zm2.644,9.8L12.3,32.049a1.143,1.143,0,1,0,1.616,1.616l1.536-1.536a1.143,1.143,0,0,0-1.616-1.616ZM36.368,4.778c-.108.269-.221.554-.338.855l-7.456,19.1c-1.06,2.715-1.833,4.141-3.119,4.4a2,2,0,0,1-.4.041c-1,0-1.788-.8-2.751-1.788l-.078-.08-12.04.788A1.143,1.143,0,0,1,9.3,26.151l5.884-5.884-5.043-5.043c-1.452-1.452-2.3-2.594-2.043-3.8.283-1.324,1.624-1.836,3.653-2.61.27-.1.555-.212.856-.329l19.1-7.456C34.441-.035,35.9-.384,36.786.513,37.7,1.436,37.171,2.766,36.368,4.778Zm-1.534-2.4a19.666,19.666,0,0,0-2.291.777l-19.1,7.456q-.459.179-.872.335a12.266,12.266,0,0,0-2.2.974,6.685,6.685,0,0,0,1.387,1.684L16.8,18.651,27.116,8.338a1.143,1.143,0,0,1,1.616,1.616L17.615,21.07l-.005.006-.006.005-4.54,4.54,7.015-.459-1.354-1.354a1.143,1.143,0,1,1,1.616-1.616l3.064,3.063c.188.188.365.369.532.54a11.017,11.017,0,0,0,1.087,1.029,11.342,11.342,0,0,0,1.419-2.92L33.9,4.8c.119-.306.235-.6.345-.871C34.449,3.419,34.685,2.829,34.833,2.382Z" transform="translate(-4.125 0)"/></svg>