<svg xmlns="http://www.w3.org/2000/svg" width="33.998" height="34" viewBox="0 0 33.998 34"><g transform="translate(-0.012)"><g transform="translate(0.012)"><g transform="translate(0)"><path d="M325.417,73.842a3.617,3.617,0,1,0,2.557,1.059A3.593,3.593,0,0,0,325.417,73.842Zm.852,4.469a1.205,1.205,0,1,1,0-1.7A1.2,1.2,0,0,1,326.269,78.311Z" transform="translate(-300.029 -68.846)"/><path d="M50.837,1.5l-.167-.433L50.237.9A13.429,13.429,0,0,0,45.4,0a13.077,13.077,0,0,0-9.314,3.841L32.959,6.968l-7.873.984-5.8,5.8,4.921,1.968-1.095,1.095L24.7,18.4l-2.46,3.444L29.887,29.5l3.444-2.46,1.589,1.589,1.095-1.095,1.968,4.921,5.8-5.8.984-7.873,3.126-3.126A13.276,13.276,0,0,0,50.837,1.5ZM23,12.99l3.056-3.056,4.5-.562-4.743,4.743ZM30.112,26.77l-5.146-5.146L26.2,19.9l5.638,5.638ZM41.8,25.68l-3.056,3.056-1.125-2.812,4.743-4.743Zm4.617-11.506-11.5,11.5-3.69-3.69,8.119-8.119-1.476-1.476-8.119,8.119-3.69-3.69,11.5-11.5A11,11,0,0,1,45.4,2.088a11.341,11.341,0,0,1,3.649.6A11.177,11.177,0,0,1,46.418,14.174Z" transform="translate(-17.736)"/><rect width="4.822" height="2.411" transform="translate(3.409 28.885) rotate(-45)"/><rect width="2.411" height="4.822" transform="translate(7.513 34) rotate(-135)"/><rect width="4.822" height="2.411" transform="translate(0 26.486) rotate(-45)"/></g></g></g></svg>