<svg xmlns="http://www.w3.org/2000/svg" xmlns:xlink="http://www.w3.org/1999/xlink" width="1340" height="1133" viewBox="0 0 1340 1133"><defs><linearGradient id="a" x1="0.5" x2="0.513" y2="0.594" gradientUnits="objectBoundingBox"><stop offset="0" stop-color="#374f9c"/><stop offset="1" stop-color="#4562c1"/></linearGradient><linearGradient id="b" x1="0.5" x2="0.5" y2="1" gradientUnits="objectBoundingBox"><stop offset="0" stop-color="#e9d89b"/><stop offset="1" stop-color="#fef5d4"/></linearGradient><clipPath id="d"><rect width="1340" height="1133"/></clipPath></defs><g id="c" clip-path="url(#d)"><g transform="translate(-1320.662 108)"><path d="M388.839,295.645c79.8-6.413,114.126-55.206,125.49-114.812,19.919-104.472,503.771,328.4,429.394,474.709-24.4,47.988-37.093,101.283-29.165,162.371,32.226,248.318,124.369,454.82-447.59,443.377-477.452-9.553-690.9-272.466-432.352-521.262,96.954-93.3,102.915-163.4,70.373-227.386C50.868,406.227,133.079,286.4,347.6,296.232A327.261,327.261,0,0,0,388.839,295.645Z" transform="matrix(0.743, 0.669, -0.669, 0.743, 2299.802, -450.111)" fill="url(#a)"/><g transform="translate(1321.484 234.404)"><path d="M677.337,339.71l-13.666,61.468-11.094,49.866-8.842,39.771-11.087,49.866L596.418,703.6,147.485,496.152l-33-15.251-41.77-19.3L39.7,446.345,0,428l22.509-32.748,18.718-27.231,23.679-34.452,18.712-27.214L294.188,0,517.254,197.779,556.977,233l31.674,28.083L628.379,296.3Z" fill="#f2f2f2"/><path d="M584.1,484.662l23.19,40.166,23.19,40.166H537.723l23.189-40.166Z" transform="translate(-74.928 -67.534)" fill="#d2e3f7"/><path d="M0,0H97.254V97.254H0Z" transform="translate(280.144 338.238)" fill="#d2e3f7"/><path d="M62.4,0A62.4,62.4,0,1,1,0,62.4,62.4,62.4,0,0,1,62.4,0Z" transform="translate(384.714 151.476)" fill="#d2e3f7"/><path d="M647.5,408.884a10.328,10.328,0,1,1,10.328,10.328A10.328,10.328,0,0,1,647.5,408.884Zm1.721,0a8.607,8.607,0,1,0,8.607-8.607,8.607,8.607,0,0,0-8.607,8.607Z" transform="translate(-144.231 -90.823)" fill="#3f3d56"/><path d="M541.725,614.193l-15.2-16.3,16.3-15.2,15.2,16.3Zm-12.779-16.215,12.864,13.791L555.6,598.906l-12.864-13.791Z" transform="translate(-127.373 -116.481)" fill="#3f3d56"/><path d="M396.3,345.736l-12.373-13.265L397.193,320.1l12.373,13.265Zm-10.4-13.2,10.47,11.225,11.225-10.47L397.124,322.07Z" transform="translate(-107.504 -79.89)" fill="#3f3d56"/><path d="M586.316,343.131a86.066,86.066,0,1,1,86.066-86.066,86.066,86.066,0,0,1-86.066,86.066Zm0-170.41a84.344,84.344,0,1,0,84.344,84.344,84.344,84.344,0,0,0-84.344-84.344Z" transform="translate(-123.713 -59.115)" fill="#3f3d56"/><rect width="51.335" height="1.721" transform="translate(387.388 311.186) rotate(-64.336)" fill="#3f3d56"/><rect width="1.721" height="111.354" transform="translate(403.67 374.28) rotate(-61.578)" fill="#3f3d56"/><path d="M512.906,527.656H387.25V402H512.906Zm-123.935-1.721H511.185V403.721H388.971Z" transform="translate(-107.967 -91.303)" fill="#3f3d56"/><path d="M728.717,601.776H598.741l64.987-112.562Zm-126.994-1.721H725.734l-62.006-107.4Z" transform="translate(-137.437 -103.455)" fill="#3f3d56"/><circle cx="21.516" cy="21.516" r="21.516" transform="translate(733.71 268.525)" fill="rgba(204,151,91,0.9)"/><path d="M949.488,390.984s2.582,25.82,6.885,30.123-30.123-2.582-30.123-2.582,5.164-21.516,1.721-24.959S949.488,390.984,949.488,390.984Z" transform="translate(-183.073 -89.755)" fill="rgba(204,151,91,0.9)"/><path d="M969.635,441.5s10.328,29.262,12.91,47.336,2.582,25.82,2.582,25.82,11.189,34.426,7.746,50.779c0,0,12.91,38.729,1.721,38.729s-14.631-31.844-14.631-31.844L962.75,490.557Z" transform="translate(-188.159 -96.807)" fill="rgba(204,151,91,0.9)"/><path d="M960.307,451.076s-2.582-31.844-13.771-34.426c-5.341-1.233-14.018-3.054-21.627-4.621a29.979,29.979,0,0,0-32.955,15.678,21.97,21.97,0,0,0-2.222,7.016c-1.721,13.77-10.328,13.77-2.582,31.844s6.025,37.008,6.025,37.008l5.164,45.615s-21.516,60.246-19.8,100.7l-19.8,98.976s4.3,10.328,16.353,5.164c0,0,30.123-50.779,27.541-87.787l30.984-68.853s21.516,65.41,27.541,71.435l15.492,92.951s14.631,4.3,21.517,0c0,0,2.582-89.508-12.049-104.14,0,0-14.631-61.967-11.189-78.32s4.3-41.312-21.516-63.689c0,0,3.443-9.467-7.746-14.631l8.607-27.541Z" transform="translate(-173.667 -92.612)" fill="#2f2e41"/><path d="M906.756,414.862q-.349-.05-.712-.083a13.551,13.551,0,0,0-14.522,13.041l-1.36,30.606L885,491.991l-11.189,72.3s-21.516,25.82-6.885,27.541,17.213-28.4,17.213-28.4l18.934-56.8,7.746-52.5s9.035-9.035,5.274-29.921A11.32,11.32,0,0,0,906.756,414.862Z" transform="translate(-174.096 -93.076)" fill="rgba(204,151,91,0.9)"/><path d="M854.422,799.5,848.4,830.484s-14.631,6.885-5.164,15.492,22.377-1.721,22.377-1.721l3.443-10.328-.861,15.492h2.582l2.582-15.492s5.164-9.467,1.721-17.213V806.385Z" transform="translate(-171.061 -146.692)" fill="#2f2e41"/><path d="M991.34,803,987.9,831.4s-14.631,6.885-5.164,15.492,22.377-1.721,22.377-1.721l3.443-10.328-.861,15.492h2.582l2.582-15.492s5.164-9.467,1.721-17.213V807.3Z" transform="translate(-190.499 -147.179)" fill="#2f2e41"/><path d="M947.978,339.161h0a18.614,18.614,0,0,0-3.594.357,15.752,15.752,0,0,0-6.861-1.581H936.9c-12.007,0-21.74,10.865-21.74,24.267h4.023l.65-4.946.953,4.946h3.352a47.429,47.429,0,0,0-1.557,12.158v24.7h6.083l3.522-9.152-.88,9.152h39.1l3.2-8.32-.8,8.32h4.4V379.668C977.2,357.3,964.119,339.161,947.978,339.161Z" transform="translate(-181.527 -82.376)" fill="#2f2e41"/><rect width="1.613" height="288.53" transform="translate(885.935 414.441)" fill="#3f3d56"/><ellipse cx="31.463" cy="71.8" rx="31.463" ry="71.8" transform="translate(855.591 534.645)" fill="#d2e3f7"/><ellipse cx="31.463" cy="71.8" rx="31.463" ry="71.8" transform="translate(855.591 370.878)" fill="#d2e3f7"/><path d="M1085.826,475.267l-1.546-.463c.1-.326,9.583-32.832-5.992-53.757-8.8-11.818-23.892-17.811-44.867-17.811v-1.613c21.516,0,37.047,6.213,46.165,18.467C1095.646,441.67,1085.929,474.934,1085.826,475.267Z" transform="translate(-198.006 -91.25)" fill="#3f3d56"/><circle cx="20.168" cy="20.168" r="20.168" transform="translate(815.251 291.01)" fill="url(#b)"/></g></g></g></svg>